<svg width="100" height="100" viewBox="0 0 100 100" fill="none" xmlns="http://www.w3.org/2000/svg">
<mask id="path-1-inside-1" fill="white">
<path fill-rule="evenodd" clip-rule="evenodd" d="M7.62939e-06 78.9739L29.4004 78.9739L39.8216 89.3952L50.4264 100L61.0313 89.3952L71.4525 78.9739H85H100V63.9789V14.9951V8.028e-06L100 0L85.754 8.65012e-06L85 9.10833e-06L0 9.86271e-06V14.9951V63.9789L7.62939e-06 78.9739Z"/>
</mask>
<path d="M29.4004 78.9739L40.007 68.3673L35.6136 63.9739L29.4004 63.9739L29.4004 78.9739ZM7.62939e-06 78.9739L-15 78.9739L-15 93.9739L1.15219e-05 93.9739L7.62939e-06 78.9739ZM39.8216 89.3952L29.215 100.002L29.215 100.002L39.8216 89.3952ZM50.4264 100L39.8198 110.607L50.4264 121.213L61.033 110.607L50.4264 100ZM71.4525 78.9739V63.9739H65.2393L60.8459 68.3673L71.4525 78.9739ZM100 78.9739V93.9739H115V78.9739H100ZM100 8.028e-06H115V-5.99071L110.873 -10.3332L100 8.028e-06ZM100 0L110.873 -10.3332L106.438 -15L100 -15L100 0ZM85.754 8.65012e-06L85.7539 -15L85.754 8.65012e-06ZM85 9.10833e-06L85 15L85 15L85 9.10833e-06ZM0 9.86271e-06L-1.33124e-07 -15L-15 -15L-15 9.86271e-06H0ZM0 63.9789L-15 63.9789L-15 63.9789L0 63.9789ZM29.4004 63.9739L3.73689e-06 63.9739L1.15219e-05 93.9739L29.4004 93.9739L29.4004 63.9739ZM50.4282 78.7886L40.007 68.3673L18.7938 89.5805L29.215 100.002L50.4282 78.7886ZM61.033 89.3934L50.4282 78.7886L29.215 100.002L39.8198 110.607L61.033 89.3934ZM50.4247 78.7886L39.8198 89.3934L61.033 110.607L71.6379 100.002L50.4247 78.7886ZM60.8459 68.3673L50.4247 78.7886L71.6379 100.002L82.0591 89.5805L60.8459 68.3673ZM85 63.9739H71.4525V93.9739H85V63.9739ZM100 63.9739H85V93.9739H100V63.9739ZM85 63.9789V78.9739H115V63.9789H85ZM85 14.9951V63.9789H115V14.9951H85ZM85 8.028e-06V14.9951H115V8.028e-06H85ZM89.1269 10.3332L89.1269 10.3332L110.873 -10.3332L110.873 -10.3332L89.1269 10.3332ZM85.754 15L100 15L100 -15L85.7539 -15L85.754 15ZM85 15L85.754 15L85.7539 -15L85 -15L85 15ZM1.33124e-07 15L85 15L85 -15L-1.33124e-07 -15L1.33124e-07 15ZM15 14.9951V9.86271e-06H-15V14.9951H15ZM15 63.9789V14.9951H-15V63.9789H15ZM15 78.9739L15 63.9789L-15 63.9789L-15 78.9739L15 78.9739Z" fill="white" mask="url(#path-1-inside-1)"/>
</svg>
