<?xml version="1.0" encoding="utf-8"?>
<!-- Generator: Adobe Illustrator 22.1.0, SVG Export Plug-In . SVG Version: 6.00 Build 0)  -->
<svg version="1.1" id="Layer_1" xmlns="http://www.w3.org/2000/svg" xmlns:xlink="http://www.w3.org/1999/xlink" x="0px" y="0px"
	 viewBox="0 0 205.1 205.2" style="enable-background:new 0 0 205.1 205.2;" xml:space="preserve">
<style type="text/css">
	.st0{fill:#1F292D;}
</style>
<title>logo-secret-escapes</title>
<g>
	<path class="st0" d="M130.4,180.4v-67.8h54.2C180.8,144,159.3,170,130.4,180.4 M91.7,184.6v-72h19.7v72.2c-2.6,0.2-6.2,0.4-8.8,0.4
		C99.2,185.2,94.9,185,91.7,184.6 M20,102.6c0-35,21.9-64.9,52.6-77v154C41.9,167.6,20,137.6,20,102.6 M175.9,30.8
		C157.7,11.1,130.4,0,102.6,0C46,0,0,46,0,102.6s46,102.6,102.6,102.6c53.2,0,97.9-41.8,102.1-92.6c1-11.7-0.1-20-0.1-20h-113v-72
		c3.3-0.4,7.6-0.6,10.9-0.6c2.6,0,6.2,0.1,8.8,0.4v52.4h19v-48c11.6,4.2,22.3,11,31.2,20.1L175.9,30.8z"/>
</g>
</svg>
