<svg width="100" height="101" viewBox="0 0 100 101" fill="none" xmlns="http://www.w3.org/2000/svg">
<mask id="path-1-inside-1" fill="white">
<path fill-rule="evenodd" clip-rule="evenodd" d="M0 49.9805C6.27528 28.2877 26.2853 12.4263 50 12.4263C73.7147 12.4263 93.7247 28.2877 100 49.9805C93.7247 71.6733 73.7147 87.5347 50 87.5347C26.2853 87.5347 6.27528 71.6733 0 49.9805Z"/>
</mask>
<path d="M0 49.9805L-14.4092 45.8122L-15.615 49.9805L-14.4092 54.1488L0 49.9805ZM100 49.9805L114.409 54.1488L115.615 49.9805L114.409 45.8122L100 49.9805ZM14.4092 54.1488C18.8785 38.6992 33.1423 27.4263 50 27.4263V-2.57373C19.4284 -2.57373 -6.3279 17.8762 -14.4092 45.8122L14.4092 54.1488ZM50 27.4263C66.8578 27.4263 81.1215 38.6992 85.5908 54.1488L114.409 45.8122C106.328 17.8762 80.5716 -2.57373 50 -2.57373V27.4263ZM85.5908 45.8122C81.1215 61.2618 66.8578 72.5347 50 72.5347V102.535C80.5716 102.535 106.328 82.0847 114.409 54.1488L85.5908 45.8122ZM50 72.5347C33.1423 72.5347 18.8785 61.2618 14.4092 45.8122L-14.4092 54.1488C-6.3279 82.0847 19.4284 102.535 50 102.535V72.5347Z" fill="white" mask="url(#path-1-inside-1)"/>
<ellipse cx="50.3227" cy="49.6603" rx="9.76409" ry="9.76409" fill="white"/>
</svg>
